<?xml version="1.0" encoding="UTF-8"?>
<svg width="13px" height="12px" viewBox="0 0 13 12" version="1.1" xmlns="http://www.w3.org/2000/svg" xmlns:xlink="http://www.w3.org/1999/xlink">
    <!-- Generator: Sketch 52.5 (67469) - http://www.bohemiancoding.com/sketch -->
    <title>noun_filter_1581560</title>
    <desc>Created with Sketch.</desc>
    <g id="Page-1" stroke="none" stroke-width="1" fill="none" fill-rule="evenodd">
        <g id="1" transform="translate(-984.000000, -176.000000)">
            <g id="noun_filter_1581560" transform="translate(982.000000, 173.000000)">
                <g id="Group">
                    <g id="Shape">
                        <g>
                            <g>
                                <polygon points="0 0 17 0 17 17 0 17"></polygon>
                                <path d="M10.8115997,12.0416667 L6.18840028,12.0416667 C6.18840028,12.9982994 6.18840028,12.9982994 6.18840028,14.1666667 L10.8115997,14.1666667 C10.8115997,13.1041667 10.8115997,12.9415371 10.8115997,12.0416667 Z M2.04111842,5.66666667 L14.9588816,5.66666667 C14.9588816,3.96090285 14.9588816,4.60416667 14.9588816,3.54166667 L2.04111842,3.54166667 C2.04111842,3.83360453 2.04111842,4.18777119 2.04111842,4.60416667 C2.04111842,4.68112858 2.04111842,5.03529524 2.04111842,5.66666667 Z M12.6472819,7.79166667 L4.35271814,7.79166667 C4.35271814,8.68776789 4.35271814,8.49153276 4.35271814,9.91666667 L12.6472819,9.91666667 C12.6472819,8.85416667 12.6472819,9.06023624 12.6472819,7.79166667 Z" fill="#E0E1E4" fill-rule="nonzero"></path>
                            </g>
                        </g>
                    </g>
                </g>
            </g>
        </g>
    </g>
</svg>