<?xml version="1.0" encoding="UTF-8"?>
<svg width="18px" height="17px" viewBox="0 0 18 17" version="1.1" xmlns="http://www.w3.org/2000/svg" xmlns:xlink="http://www.w3.org/1999/xlink">
    <!-- Generator: Sketch 52.5 (67469) - http://www.bohemiancoding.com/sketch -->
    <title>noun_Search_1534853</title>
    <desc>Created with Sketch.</desc>
    <g id="Page-1" stroke="none" stroke-width="1" fill="none" fill-rule="evenodd">
        <g id="1" transform="translate(-404.000000, -173.000000)" fill="#1B1C1E" fill-rule="nonzero" stroke="#1B1C1E" stroke-width="0.3">
            <g id="noun_Search_1534853" transform="translate(405.000000, 174.000000)">
                <path d="M11.9756987,10.8418491 C12.90887,9.67396594 13.4143378,8.21411192 13.4143378,6.69586375 C13.4143378,2.99756691 10.4009721,0 6.70716889,0 C3.01336574,0.0194647202 0,3.01703163 0,6.71532847 C0,10.4136253 3.01336574,13.4111922 6.68772783,13.4111922 C8.16524909,13.4111922 9.62332928,12.9051095 10.8286756,11.9708029 L14.8529769,16 L16,14.8515815 L11.9756987,10.8418491 Z M6.68772783,11.8150852 C3.88821385,11.8150852 1.61360875,9.5377129 1.61360875,6.73479319 C1.61360875,3.93187348 3.88821385,1.65450122 6.68772783,1.65450122 C9.4872418,1.65450122 11.7618469,3.93187348 11.7618469,6.73479319 C11.7618469,9.5377129 9.4872418,11.8150852 6.68772783,11.8150852 Z" id="Shape"></path>
            </g>
        </g>
    </g>
</svg>